<svg id="visual" viewBox="0 0 900 600" width="900" height="600" xmlns="http://www.w3.org/2000/svg" xmlns:xlink="http://www.w3.org/1999/xlink" version="1.1"><rect x="0" y="0" width="900" height="600" fill="#002f1b"></rect><defs><linearGradient id="grad1_0" x1="33.3%" y1="100%" x2="100%" y2="0%"><stop offset="20%" stop-color="#002f1b" stop-opacity="1"></stop><stop offset="80%" stop-color="#002f1b" stop-opacity="1"></stop></linearGradient></defs><defs><linearGradient id="grad2_0" x1="0%" y1="100%" x2="66.7%" y2="0%"><stop offset="20%" stop-color="#002f1b" stop-opacity="1"></stop><stop offset="80%" stop-color="#002f1b" stop-opacity="1"></stop></linearGradient></defs><g transform="translate(900, 600)"><path d="M-540.8 0C-521.9 -72.2 -502.9 -144.4 -461 -191C-419.1 -237.6 -354.2 -258.6 -313.2 -313.2C-272.3 -367.9 -255.2 -456.1 -207 -499.7C-158.7 -543.2 -79.4 -542 0 -540.8L0 0Z" fill="#ffffff"></path></g><g transform="translate(0, 0)"><path d="M540.8 0C505.5 64.5 470.2 129 433.3 179.5C396.4 229.9 357.9 266.3 323.9 323.9C289.8 381.4 260.2 460 207 499.7C153.7 539.3 76.9 540.1 0 540.8L0 0Z" fill="#ffffff"></path></g></svg>